/* XPM */
static char *_9fb9a01866d4055cdbbecee722f2380VjQSnLRocxEC6CGD[] = {
/* columns rows colors chars-per-pixel */
"128 128 13 1 ",
"  c #3F0000",
". c #4F0000",
"X c #550000",
"o c #5F0000",
"O c #650B00",
"+ c #732B00",
"@ c #A43D00",
"# c #B14500",
"$ c #CB5500",
"% c #D85D00",
"& c #E56500",
"* c #F36D00",
"= c #FF8619",
/* pixels */
"++++++++++++++++++++++++++++XXXX============================####++++++++++++++++++++++++++++XXXX============================####",
"++++++++++++++++++++++++++++XXXX============================####++++++++++++++++++++++++++++XXXX============================####",
"++++++++++OOOOOOOOOOOOOOOOOOOXXX==***************************###++++++++++OOOOOOOOOOOOOOOOOOOXXX==***************************###",
"+++++++++OOOOOOOOOOOOOOOOOOOOoXX==**************************&&##+++++++++OOOOOOOOOOOOOOOOOOOOoXX==**************************&&##",
"++++++++OOOOOOOOOOOOOOOOOOOOoo  ==*************************&&&@@++++++++OOOOOOOOOOOOOOOOOOOOoo  ==*************************&&&@@",
"+++++++OOOOOOOOOOOOOOOOOOOOooo  ==************************&&&&@@+++++++OOOOOOOOOOOOOOOOOOOOooo  ==************************&&&&@@",
"++++++OOOOOOOOOOOOOOOOOOOOoooo  ==***********************&&&&&@@++++++OOOOOOOOOOOOOOOOOOOOoooo  ==***********************&&&&&@@",
"+++++OOOOOOOOOOOOOOOOOOOOooooo  ==**********************&&&&&&@@+++++OOOOOOOOOOOOOOOOOOOOooooo  ==**********************&&&&&&@@",
"++++OOOOOOOOOOOOOOOOOOOOoooooo  ==*********************&&&&&&&@@++++OOOOOOOOOOOOOOOOOOOOoooooo  ==*********************&&&&&&&@@",
"+++OOOOOOOOOOOOOOOOOOOOooooooo  ==********************&&&&&&&&@@+++OOOOOOOOOOOOOOOOOOOOooooooo  ==********************&&&&&&&&@@",
"++OOOOOOOOOOOOOOOOOOOOoooooooo  ==*******************&&&&&&&&&@@++OOOOOOOOOOOOOOOOOOOOoooooooo  ==*******************&&&&&&&&&@@",
"++OOOOOOOOOOOOOOOOOOOooooooooo  ==******************&&&&&&&&&&@@++OOOOOOOOOOOOOOOOOOOooooooooo  ==******************&&&&&&&&&&@@",
"++OOOOOOOOOOOOOOOOOOoooooooooo  ==*****************&&&&&&&&&&&@@++OOOOOOOOOOOOOOOOOOoooooooooo  ==*****************&&&&&&&&&&&@@",
"++OOOOOOOOOOOOOOOOOooooooooooo  ==****************&&&&&&&&&&&&@@++OOOOOOOOOOOOOOOOOooooooooooo  ==****************&&&&&&&&&&&&@@",
"++OOOOOOOOOOOOOOOOoooooooooooo  ==***************&&&&&&&&&&&&$@@++OOOOOOOOOOOOOOOOoooooooooooo  ==***************&&&&&&&&&&&&$@@",
"++OOOOOOOOOOOOOOOoooooooooooo.  ==**************&&&&&&&&&&&&%$@@++OOOOOOOOOOOOOOOoooooooooooo.  ==**************&&&&&&&&&&&&%$@@",
"++OOOOOOOOOOOOOOooooooooooooX.  ==*************&&&&&&&&&&&&%%$@@++OOOOOOOOOOOOOOooooooooooooX.  ==*************&&&&&&&&&&&&%%$@@",
"++OOOOOOOOOOOOOooooooooooooXX.  ==************&&&&&&&&&&&&%%%$@@++OOOOOOOOOOOOOooooooooooooXX.  ==************&&&&&&&&&&&&%%%$@@",
"++OOOOOOOOOOOOooooooooooooXXX.  ==***********&&&&&&&&&&&&%%%%$@@++OOOOOOOOOOOOooooooooooooXXX.  ==***********&&&&&&&&&&&&%%%%$@@",
"++OOOOOOOOOOOooooooooooooXXXX.  ==**********&&&&&&&&&&&&%%%%%$@@++OOOOOOOOOOOooooooooooooXXXX.  ==**********&&&&&&&&&&&&%%%%%$@@",
"++OOOOOOOOOOooooooooooooXXXXX.  ==*********&&&&&&&&&&&&%%%%%%$@@++OOOOOOOOOOooooooooooooXXXXX.  ==*********&&&&&&&&&&&&%%%%%%$@@",
"++OOOOOOOOOooooooooooooXXXXXX.  ==********&&&&&&&&&&&&%%%%%%%$@@++OOOOOOOOOooooooooooooXXXXXX.  ==********&&&&&&&&&&&&%%%%%%%$@@",
"++OOOOOOOOooooooooooooXXXXXXX.  ==*******&&&&&&&&&&&&%%%%%%%%$@@++OOOOOOOOooooooooooooXXXXXXX.  ==*******&&&&&&&&&&&&%%%%%%%%$@@",
"++OOOOOOOooooooooooooXXXXXXXX.  ==******&&&&&&&&&&&&%%%%%%%%$$@@++OOOOOOOooooooooooooXXXXXXXX.  ==******&&&&&&&&&&&&%%%%%%%%$$@@",
"++OOOOOOooooooooooooXXXXXXXX..  ==*****&&&&&&&&&&&&%%%%%%%%$$$@@++OOOOOOooooooooooooXXXXXXXX..  ==*****&&&&&&&&&&&&%%%%%%%%$$$@@",
"++OOOOOooooooooooooXXXXXXXX...  ==****&&&&&&&&&&&&%%%%%%%%$$$$@@++OOOOOooooooooooooXXXXXXXX...  ==****&&&&&&&&&&&&%%%%%%%%$$$$@@",
"++OOOOooooooooooooXXXXXXXX....  ==***&&&&&&&&&&&&%%%%%%%%$$$$$@@++OOOOooooooooooooXXXXXXXX....  ==***&&&&&&&&&&&&%%%%%%%%$$$$$@@",
"++OOOooooooooooooXXXXXXXX.....  ==**&&&&&&&&&&&&%%%%%%%%$$$$$$@@++OOOooooooooooooXXXXXXXX.....  ==**&&&&&&&&&&&&%%%%%%%%$$$$$$@@",
"XXOOooooooooooooXXXXXXXX......  ##*&&&&&&&&&&&&%%%%%%%%$$$$$$$@@XXOOooooooooooooXXXXXXXX......  ##*&&&&&&&&&&&&%%%%%%%%$$$$$$$@@",
"XXXXooooooooooo...............  ###&&&&&&&&&&&$$$$$$$$$$$$$$$$@@XXXXooooooooooo...............  ###&&&&&&&&&&&$$$$$$$$$$$$$$$$@@",
"XXXX                            ####@@@@@@@@@@@@@@@@@@@@@@@@@@@@XXXX                            ####@@@@@@@@@@@@@@@@@@@@@@@@@@@@",
"XXXX                            ####@@@@@@@@@@@@@@@@@@@@@@@@@@@@XXXX                            ####@@@@@@@@@@@@@@@@@@@@@@@@@@@@",
"============================####++++++++++++++++++++++++++++XXXX============================####++++++++++++++++++++++++++++XXXX",
"============================####++++++++++++++++++++++++++++XXXX============================####++++++++++++++++++++++++++++XXXX",
"==***************************###++++++++++OOOOOOOOOOOOOOOOOOOXXX==***************************###++++++++++OOOOOOOOOOOOOOOOOOOXXX",
"==**************************&&##+++++++++OOOOOOOOOOOOOOOOOOOOoXX==**************************&&##+++++++++OOOOOOOOOOOOOOOOOOOOoXX",
"==*************************&&&@@++++++++OOOOOOOOOOOOOOOOOOOOoo  ==*************************&&&@@++++++++OOOOOOOOOOOOOOOOOOOOoo  ",
"==************************&&&&@@+++++++OOOOOOOOOOOOOOOOOOOOooo  ==************************&&&&@@+++++++OOOOOOOOOOOOOOOOOOOOooo  ",
"==***********************&&&&&@@++++++OOOOOOOOOOOOOOOOOOOOoooo  ==***********************&&&&&@@++++++OOOOOOOOOOOOOOOOOOOOoooo  ",
"==**********************&&&&&&@@+++++OOOOOOOOOOOOOOOOOOOOooooo  ==**********************&&&&&&@@+++++OOOOOOOOOOOOOOOOOOOOooooo  ",
"==*********************&&&&&&&@@++++OOOOOOOOOOOOOOOOOOOOoooooo  ==*********************&&&&&&&@@++++OOOOOOOOOOOOOOOOOOOOoooooo  ",
"==********************&&&&&&&&@@+++OOOOOOOOOOOOOOOOOOOOooooooo  ==********************&&&&&&&&@@+++OOOOOOOOOOOOOOOOOOOOooooooo  ",
"==*******************&&&&&&&&&@@++OOOOOOOOOOOOOOOOOOOOoooooooo  ==*******************&&&&&&&&&@@++OOOOOOOOOOOOOOOOOOOOoooooooo  ",
"==******************&&&&&&&&&&@@++OOOOOOOOOOOOOOOOOOOooooooooo  ==******************&&&&&&&&&&@@++OOOOOOOOOOOOOOOOOOOooooooooo  ",
"==*****************&&&&&&&&&&&@@++OOOOOOOOOOOOOOOOOOoooooooooo  ==*****************&&&&&&&&&&&@@++OOOOOOOOOOOOOOOOOOoooooooooo  ",
"==****************&&&&&&&&&&&&@@++OOOOOOOOOOOOOOOOOooooooooooo  ==****************&&&&&&&&&&&&@@++OOOOOOOOOOOOOOOOOooooooooooo  ",
"==***************&&&&&&&&&&&&$@@++OOOOOOOOOOOOOOOOoooooooooooo  ==***************&&&&&&&&&&&&$@@++OOOOOOOOOOOOOOOOoooooooooooo  ",
"==**************&&&&&&&&&&&&%$@@++OOOOOOOOOOOOOOOoooooooooooo.  ==**************&&&&&&&&&&&&%$@@++OOOOOOOOOOOOOOOoooooooooooo.  ",
"==*************&&&&&&&&&&&&%%$@@++OOOOOOOOOOOOOOooooooooooooX.  ==*************&&&&&&&&&&&&%%$@@++OOOOOOOOOOOOOOooooooooooooX.  ",
"==************&&&&&&&&&&&&%%%$@@++OOOOOOOOOOOOOooooooooooooXX.  ==************&&&&&&&&&&&&%%%$@@++OOOOOOOOOOOOOooooooooooooXX.  ",
"==***********&&&&&&&&&&&&%%%%$@@++OOOOOOOOOOOOooooooooooooXXX.  ==***********&&&&&&&&&&&&%%%%$@@++OOOOOOOOOOOOooooooooooooXXX.  ",
"==**********&&&&&&&&&&&&%%%%%$@@++OOOOOOOOOOOooooooooooooXXXX.  ==**********&&&&&&&&&&&&%%%%%$@@++OOOOOOOOOOOooooooooooooXXXX.  ",
"==*********&&&&&&&&&&&&%%%%%%$@@++OOOOOOOOOOooooooooooooXXXXX.  ==*********&&&&&&&&&&&&%%%%%%$@@++OOOOOOOOOOooooooooooooXXXXX.  ",
"==********&&&&&&&&&&&&%%%%%%%$@@++OOOOOOOOOooooooooooooXXXXXX.  ==********&&&&&&&&&&&&%%%%%%%$@@++OOOOOOOOOooooooooooooXXXXXX.  ",
"==*******&&&&&&&&&&&&%%%%%%%%$@@++OOOOOOOOooooooooooooXXXXXXX.  ==*******&&&&&&&&&&&&%%%%%%%%$@@++OOOOOOOOooooooooooooXXXXXXX.  ",
"==******&&&&&&&&&&&&%%%%%%%%$$@@++OOOOOOOooooooooooooXXXXXXXX.  ==******&&&&&&&&&&&&%%%%%%%%$$@@++OOOOOOOooooooooooooXXXXXXXX.  ",
"==*****&&&&&&&&&&&&%%%%%%%%$$$@@++OOOOOOooooooooooooXXXXXXXX..  ==*****&&&&&&&&&&&&%%%%%%%%$$$@@++OOOOOOooooooooooooXXXXXXXX..  ",
"==****&&&&&&&&&&&&%%%%%%%%$$$$@@++OOOOOooooooooooooXXXXXXXX...  ==****&&&&&&&&&&&&%%%%%%%%$$$$@@++OOOOOooooooooooooXXXXXXXX...  ",
"==***&&&&&&&&&&&&%%%%%%%%$$$$$@@++OOOOooooooooooooXXXXXXXX....  ==***&&&&&&&&&&&&%%%%%%%%$$$$$@@++OOOOooooooooooooXXXXXXXX....  ",
"==**&&&&&&&&&&&&%%%%%%%%$$$$$$@@++OOOooooooooooooXXXXXXXX.....  ==**&&&&&&&&&&&&%%%%%%%%$$$$$$@@++OOOooooooooooooXXXXXXXX.....  ",
"##*&&&&&&&&&&&&%%%%%%%%$$$$$$$@@XXOOooooooooooooXXXXXXXX......  ##*&&&&&&&&&&&&%%%%%%%%$$$$$$$@@XXOOooooooooooooXXXXXXXX......  ",
"###&&&&&&&&&&&$$$$$$$$$$$$$$$$@@XXXXooooooooooo...............  ###&&&&&&&&&&&$$$$$$$$$$$$$$$$@@XXXXooooooooooo...............  ",
"####@@@@@@@@@@@@@@@@@@@@@@@@@@@@XXXX                            ####@@@@@@@@@@@@@@@@@@@@@@@@@@@@XXXX                            ",
"####@@@@@@@@@@@@@@@@@@@@@@@@@@@@XXXX                            ####@@@@@@@@@@@@@@@@@@@@@@@@@@@@XXXX                            ",
"++++++++++++++++++++++++++++XXXX============================####++++++++++++++++++++++++++++XXXX============================####",
"++++++++++++++++++++++++++++XXXX============================####++++++++++++++++++++++++++++XXXX============================####",
"++++++++++OOOOOOOOOOOOOOOOOOOXXX==***************************###++++++++++OOOOOOOOOOOOOOOOOOOXXX==***************************###",
"+++++++++OOOOOOOOOOOOOOOOOOOOoXX==**************************&&##+++++++++OOOOOOOOOOOOOOOOOOOOoXX==**************************&&##",
"++++++++OOOOOOOOOOOOOOOOOOOOoo  ==*************************&&&@@++++++++OOOOOOOOOOOOOOOOOOOOoo  ==*************************&&&@@",
"+++++++OOOOOOOOOOOOOOOOOOOOooo  ==************************&&&&@@+++++++OOOOOOOOOOOOOOOOOOOOooo  ==************************&&&&@@",
"++++++OOOOOOOOOOOOOOOOOOOOoooo  ==***********************&&&&&@@++++++OOOOOOOOOOOOOOOOOOOOoooo  ==***********************&&&&&@@",
"+++++OOOOOOOOOOOOOOOOOOOOooooo  ==**********************&&&&&&@@+++++OOOOOOOOOOOOOOOOOOOOooooo  ==**********************&&&&&&@@",
"++++OOOOOOOOOOOOOOOOOOOOoooooo  ==*********************&&&&&&&@@++++OOOOOOOOOOOOOOOOOOOOoooooo  ==*********************&&&&&&&@@",
"+++OOOOOOOOOOOOOOOOOOOOooooooo  ==********************&&&&&&&&@@+++OOOOOOOOOOOOOOOOOOOOooooooo  ==********************&&&&&&&&@@",
"++OOOOOOOOOOOOOOOOOOOOoooooooo  ==*******************&&&&&&&&&@@++OOOOOOOOOOOOOOOOOOOOoooooooo  ==*******************&&&&&&&&&@@",
"++OOOOOOOOOOOOOOOOOOOooooooooo  ==******************&&&&&&&&&&@@++OOOOOOOOOOOOOOOOOOOooooooooo  ==******************&&&&&&&&&&@@",
"++OOOOOOOOOOOOOOOOOOoooooooooo  ==*****************&&&&&&&&&&&@@++OOOOOOOOOOOOOOOOOOoooooooooo  ==*****************&&&&&&&&&&&@@",
"++OOOOOOOOOOOOOOOOOooooooooooo  ==****************&&&&&&&&&&&&@@++OOOOOOOOOOOOOOOOOooooooooooo  ==****************&&&&&&&&&&&&@@",
"++OOOOOOOOOOOOOOOOoooooooooooo  ==***************&&&&&&&&&&&&$@@++OOOOOOOOOOOOOOOOoooooooooooo  ==***************&&&&&&&&&&&&$@@",
"++OOOOOOOOOOOOOOOoooooooooooo.  ==**************&&&&&&&&&&&&%$@@++OOOOOOOOOOOOOOOoooooooooooo.  ==**************&&&&&&&&&&&&%$@@",
"++OOOOOOOOOOOOOOooooooooooooX.  ==*************&&&&&&&&&&&&%%$@@++OOOOOOOOOOOOOOooooooooooooX.  ==*************&&&&&&&&&&&&%%$@@",
"++OOOOOOOOOOOOOooooooooooooXX.  ==************&&&&&&&&&&&&%%%$@@++OOOOOOOOOOOOOooooooooooooXX.  ==************&&&&&&&&&&&&%%%$@@",
"++OOOOOOOOOOOOooooooooooooXXX.  ==***********&&&&&&&&&&&&%%%%$@@++OOOOOOOOOOOOooooooooooooXXX.  ==***********&&&&&&&&&&&&%%%%$@@",
"++OOOOOOOOOOOooooooooooooXXXX.  ==**********&&&&&&&&&&&&%%%%%$@@++OOOOOOOOOOOooooooooooooXXXX.  ==**********&&&&&&&&&&&&%%%%%$@@",
"++OOOOOOOOOOooooooooooooXXXXX.  ==*********&&&&&&&&&&&&%%%%%%$@@++OOOOOOOOOOooooooooooooXXXXX.  ==*********&&&&&&&&&&&&%%%%%%$@@",
"++OOOOOOOOOooooooooooooXXXXXX.  ==********&&&&&&&&&&&&%%%%%%%$@@++OOOOOOOOOooooooooooooXXXXXX.  ==********&&&&&&&&&&&&%%%%%%%$@@",
"++OOOOOOOOooooooooooooXXXXXXX.  ==*******&&&&&&&&&&&&%%%%%%%%$@@++OOOOOOOOooooooooooooXXXXXXX.  ==*******&&&&&&&&&&&&%%%%%%%%$@@",
"++OOOOOOOooooooooooooXXXXXXXX.  ==******&&&&&&&&&&&&%%%%%%%%$$@@++OOOOOOOooooooooooooXXXXXXXX.  ==******&&&&&&&&&&&&%%%%%%%%$$@@",
"++OOOOOOooooooooooooXXXXXXXX..  ==*****&&&&&&&&&&&&%%%%%%%%$$$@@++OOOOOOooooooooooooXXXXXXXX..  ==*****&&&&&&&&&&&&%%%%%%%%$$$@@",
"++OOOOOooooooooooooXXXXXXXX...  ==****&&&&&&&&&&&&%%%%%%%%$$$$@@++OOOOOooooooooooooXXXXXXXX...  ==****&&&&&&&&&&&&%%%%%%%%$$$$@@",
"++OOOOooooooooooooXXXXXXXX....  ==***&&&&&&&&&&&&%%%%%%%%$$$$$@@++OOOOooooooooooooXXXXXXXX....  ==***&&&&&&&&&&&&%%%%%%%%$$$$$@@",
"++OOOooooooooooooXXXXXXXX.....  ==**&&&&&&&&&&&&%%%%%%%%$$$$$$@@++OOOooooooooooooXXXXXXXX.....  ==**&&&&&&&&&&&&%%%%%%%%$$$$$$@@",
"XXOOooooooooooooXXXXXXXX......  ##*&&&&&&&&&&&&%%%%%%%%$$$$$$$@@XXOOooooooooooooXXXXXXXX......  ##*&&&&&&&&&&&&%%%%%%%%$$$$$$$@@",
"XXXXooooooooooo...............  ###&&&&&&&&&&&$$$$$$$$$$$$$$$$@@XXXXooooooooooo...............  ###&&&&&&&&&&&$$$$$$$$$$$$$$$$@@",
"XXXX                            ####@@@@@@@@@@@@@@@@@@@@@@@@@@@@XXXX                            ####@@@@@@@@@@@@@@@@@@@@@@@@@@@@",
"XXXX                            ####@@@@@@@@@@@@@@@@@@@@@@@@@@@@XXXX                            ####@@@@@@@@@@@@@@@@@@@@@@@@@@@@",
"============================####++++++++++++++++++++++++++++XXXX============================####++++++++++++++++++++++++++++XXXX",
"============================####++++++++++++++++++++++++++++XXXX============================####++++++++++++++++++++++++++++XXXX",
"==***************************###++++++++++OOOOOOOOOOOOOOOOOOOXXX==***************************###++++++++++OOOOOOOOOOOOOOOOOOOXXX",
"==**************************&&##+++++++++OOOOOOOOOOOOOOOOOOOOoXX==**************************&&##+++++++++OOOOOOOOOOOOOOOOOOOOoXX",
"==*************************&&&@@++++++++OOOOOOOOOOOOOOOOOOOOoo  ==*************************&&&@@++++++++OOOOOOOOOOOOOOOOOOOOoo  ",
"==************************&&&&@@+++++++OOOOOOOOOOOOOOOOOOOOooo  ==************************&&&&@@+++++++OOOOOOOOOOOOOOOOOOOOooo  ",
"==***********************&&&&&@@++++++OOOOOOOOOOOOOOOOOOOOoooo  ==***********************&&&&&@@++++++OOOOOOOOOOOOOOOOOOOOoooo  ",
"==**********************&&&&&&@@+++++OOOOOOOOOOOOOOOOOOOOooooo  ==**********************&&&&&&@@+++++OOOOOOOOOOOOOOOOOOOOooooo  ",
"==*********************&&&&&&&@@++++OOOOOOOOOOOOOOOOOOOOoooooo  ==*********************&&&&&&&@@++++OOOOOOOOOOOOOOOOOOOOoooooo  ",
"==********************&&&&&&&&@@+++OOOOOOOOOOOOOOOOOOOOooooooo  ==********************&&&&&&&&@@+++OOOOOOOOOOOOOOOOOOOOooooooo  ",
"==*******************&&&&&&&&&@@++OOOOOOOOOOOOOOOOOOOOoooooooo  ==*******************&&&&&&&&&@@++OOOOOOOOOOOOOOOOOOOOoooooooo  ",
"==******************&&&&&&&&&&@@++OOOOOOOOOOOOOOOOOOOooooooooo  ==******************&&&&&&&&&&@@++OOOOOOOOOOOOOOOOOOOooooooooo  ",
"==*****************&&&&&&&&&&&@@++OOOOOOOOOOOOOOOOOOoooooooooo  ==*****************&&&&&&&&&&&@@++OOOOOOOOOOOOOOOOOOoooooooooo  ",
"==****************&&&&&&&&&&&&@@++OOOOOOOOOOOOOOOOOooooooooooo  ==****************&&&&&&&&&&&&@@++OOOOOOOOOOOOOOOOOooooooooooo  ",
"==***************&&&&&&&&&&&&$@@++OOOOOOOOOOOOOOOOoooooooooooo  ==***************&&&&&&&&&&&&$@@++OOOOOOOOOOOOOOOOoooooooooooo  ",
"==**************&&&&&&&&&&&&%$@@++OOOOOOOOOOOOOOOoooooooooooo.  ==**************&&&&&&&&&&&&%$@@++OOOOOOOOOOOOOOOoooooooooooo.  ",
"==*************&&&&&&&&&&&&%%$@@++OOOOOOOOOOOOOOooooooooooooX.  ==*************&&&&&&&&&&&&%%$@@++OOOOOOOOOOOOOOooooooooooooX.  ",
"==************&&&&&&&&&&&&%%%$@@++OOOOOOOOOOOOOooooooooooooXX.  ==************&&&&&&&&&&&&%%%$@@++OOOOOOOOOOOOOooooooooooooXX.  ",
"==***********&&&&&&&&&&&&%%%%$@@++OOOOOOOOOOOOooooooooooooXXX.  ==***********&&&&&&&&&&&&%%%%$@@++OOOOOOOOOOOOooooooooooooXXX.  ",
"==**********&&&&&&&&&&&&%%%%%$@@++OOOOOOOOOOOooooooooooooXXXX.  ==**********&&&&&&&&&&&&%%%%%$@@++OOOOOOOOOOOooooooooooooXXXX.  ",
"==*********&&&&&&&&&&&&%%%%%%$@@++OOOOOOOOOOooooooooooooXXXXX.  ==*********&&&&&&&&&&&&%%%%%%$@@++OOOOOOOOOOooooooooooooXXXXX.  ",
"==********&&&&&&&&&&&&%%%%%%%$@@++OOOOOOOOOooooooooooooXXXXXX.  ==********&&&&&&&&&&&&%%%%%%%$@@++OOOOOOOOOooooooooooooXXXXXX.  ",
"==*******&&&&&&&&&&&&%%%%%%%%$@@++OOOOOOOOooooooooooooXXXXXXX.  ==*******&&&&&&&&&&&&%%%%%%%%$@@++OOOOOOOOooooooooooooXXXXXXX.  ",
"==******&&&&&&&&&&&&%%%%%%%%$$@@++OOOOOOOooooooooooooXXXXXXXX.  ==******&&&&&&&&&&&&%%%%%%%%$$@@++OOOOOOOooooooooooooXXXXXXXX.  ",
"==*****&&&&&&&&&&&&%%%%%%%%$$$@@++OOOOOOooooooooooooXXXXXXXX..  ==*****&&&&&&&&&&&&%%%%%%%%$$$@@++OOOOOOooooooooooooXXXXXXXX..  ",
"==****&&&&&&&&&&&&%%%%%%%%$$$$@@++OOOOOooooooooooooXXXXXXXX...  ==****&&&&&&&&&&&&%%%%%%%%$$$$@@++OOOOOooooooooooooXXXXXXXX...  ",
"==***&&&&&&&&&&&&%%%%%%%%$$$$$@@++OOOOooooooooooooXXXXXXXX....  ==***&&&&&&&&&&&&%%%%%%%%$$$$$@@++OOOOooooooooooooXXXXXXXX....  ",
"==**&&&&&&&&&&&&%%%%%%%%$$$$$$@@++OOOooooooooooooXXXXXXXX.....  ==**&&&&&&&&&&&&%%%%%%%%$$$$$$@@++OOOooooooooooooXXXXXXXX.....  ",
"##*&&&&&&&&&&&&%%%%%%%%$$$$$$$@@XXOOooooooooooooXXXXXXXX......  ##*&&&&&&&&&&&&%%%%%%%%$$$$$$$@@XXOOooooooooooooXXXXXXXX......  ",
"###&&&&&&&&&&&$$$$$$$$$$$$$$$$@@XXXXooooooooooo...............  ###&&&&&&&&&&&$$$$$$$$$$$$$$$$@@XXXXooooooooooo...............  ",
"####@@@@@@@@@@@@@@@@@@@@@@@@@@@@XXXX                            ####@@@@@@@@@@@@@@@@@@@@@@@@@@@@XXXX                            ",
"####@@@@@@@@@@@@@@@@@@@@@@@@@@@@XXXX                            ####@@@@@@@@@@@@@@@@@@@@@@@@@@@@XXXX                            "
};
